<svg xmlns="http://www.w3.org/2000/svg" viewBox="0 0 100 100" fill="none" color="currentColor">
  <!-- Circular background with gradient -->
  <defs>
    <linearGradient id="bgGradient" x1="0%" y1="0%" x2="100%" y2="100%">
      <stop offset="0%" style="stop-color:#FF8C42;stop-opacity:1" />
      <stop offset="100%" style="stop-color:#D2691E;stop-opacity:1" />
    </linearGradient>
  </defs>
  <circle cx="50" cy="50" r="48" fill="url(#bgGradient)" stroke="none" />
  
  <!-- Coffee cup - white with shadow effect -->
  <path d="M 35 28 L 35 58 L 42 64 L 58 64 L 65 58 L 65 28 Z" fill="white" stroke="#E0E0E0" stroke-width="1" />
  
  <!-- Cup rim -->
  <ellipse cx="50" cy="28" rx="15" ry="3" fill="#F5F5F5" />
  
  <!-- Cup base/saucer -->
  <ellipse cx="50" cy="68" rx="18" ry="5" fill="white" />
  
  <!-- Coffee - darker brown -->
  <path d="M 38 30 L 38 56 L 42 60 L 58 60 L 62 56 L 62 30 Z" fill="#2E1810" />
  
  <!-- Coffee foam -->
  <ellipse cx="50" cy="35" rx="12" ry="2" fill="#6B4423" opacity="0.6" />
  
  <!-- Steam lines - thicker and more pronounced -->
  <path d="M 42 22 Q 43 16 41 12" stroke="white" stroke-width="3.5" fill="none" opacity="0.9" stroke-linecap="round" />
  <path d="M 50 22 Q 51 16 49 12" stroke="white" stroke-width="3.5" fill="none" opacity="0.9" stroke-linecap="round" />
  <path d="M 58 22 Q 59 16 57 12" stroke="white" stroke-width="3.5" fill="none" opacity="0.9" stroke-linecap="round" />
  
  <!-- Handle - more defined -->
  <path d="M 65 38 Q 78 38 82 44 Q 78 50 65 50" stroke="white" stroke-width="4" fill="none" stroke-linecap="round" />
</svg>

